<svg width="500" height="500" xmlns="http://www.w3.org/2000/svg">
 <g>
  <title>Layer 1</title>
  <g id="svg_1">
   <path style="--darkreader-inline-fill: var(--darkreader-background-e96020, #b44612);" fill="#E96020" d="m334.51573,0.50331c0,54.02822 -11.70699,96.26094 -30.46627,129.53876c-18.76396,33.27782 -45.6713,62.45912 -74.93409,93.59877c-29.2581,31.13918 -60.87166,64.22219 -85.99953,108.79257c-25.12788,44.57131 -42.66495,96.85004 -42.66495,167.3823l64.64131,0c0,-54.03009 11.73508,-94.4192 30.49436,-127.69514c18.76396,-33.27922 45.6713,-62.46053 74.92941,-93.60018c29.26279,-31.13918 60.87166,-64.22219 86.00422,-108.79257c25.12788,-44.57038 42.66026,-98.69553 42.66026,-169.22451l-64.66472,0z" id="svg_4"/>
   <path style="--darkreader-inline-fill: var(--darkreader-background-2d323b, #24282f);" fill="#2D323B" d="m160.82149,424.48359c-8.74278,-0.00468 -14.03902,9.04248 -14.03902,20.1969c0,11.1591 5.29624,20.20626 14.03902,20.20158l177.99305,0c8.7381,0.00468 15.82785,-9.04248 15.82317,-20.20158c0.00468,-11.15442 -7.08507,-20.20158 -15.82317,-20.1969l-177.99305,0z" id="svg_5"/>
   <path style="--darkreader-inline-fill: var(--darkreader-background-2d323b, #24282f);" fill="#2D323B" d="m179.54799,352.90238c-8.36347,0.00468 -13.12587,9.79641 -13.11651,20.47318c0.00468,10.66272 4.7624,18.17393 13.11651,18.17861l140.54005,0c8.34942,-0.00468 15.12075,-8.64444 15.12543,-19.30716c0.00937,-10.67677 -6.76196,-19.33994 -15.12543,-19.34463l-140.54005,0z" id="svg_6"/>
   <path style="--darkreader-inline-fill: var(--darkreader-background-2d323b, #24282f);" fill="#2D323B" d="m179.54799,114.18893c-8.36347,0.00375 -15.13948,8.66785 -15.12543,19.34416c0,10.66272 6.77132,19.30576 15.12543,19.30951l140.54005,0c8.34942,-0.00375 13.11183,-10.50023 13.11651,-21.16342c0.00937,-10.6763 -4.75304,-17.48649 -13.11651,-17.49024l-140.54005,0z" id="svg_7"/>
   <path style="--darkreader-inline-fill: var(--darkreader-background-2d323b, #24282f);" fill="#2D323B" d="m160.82149,39.79711c-8.72873,-0.00375 -15.8138,9.02187 -15.82317,20.16693c-0.00468,11.15863 7.08039,20.20532 15.82317,20.20158l177.99305,0c8.7381,0.00375 14.03902,-8.74044 14.03434,-19.89907c-0.00937,-11.14505 -5.30561,-20.47318 -14.03434,-20.46943l-177.99305,0z" id="svg_8"/>
   <path style="--darkreader-inline-fill: var(--darkreader-background-00a8d6, #0086ab);" fill="#00A8D6" d="m100.45089,0.50331c0,70.52898 17.53707,124.65414 42.66495,169.22451c25.12788,44.57038 56.74143,77.65339 85.99953,108.79257c29.26279,31.13965 56.17013,64.20159 74.93409,97.47753c18.75928,33.28063 30.46627,69.7877 30.46627,123.81779l64.66472,0c0,-70.53226 -17.53239,-123.58833 -42.66026,-168.15824c-25.13256,-44.57084 -56.74143,-77.65386 -86.00422,-108.79304c-29.2581,-31.13918 -56.16545,-60.32096 -74.92941,-93.59831c-18.75928,-33.27782 -30.49436,-74.7346 -30.49436,-128.76282l-64.64131,0z" id="svg_9"/>
  </g>
 </g>

</svg>