<?xml version="1.0" encoding="utf-8"?>
<!-- Generator: Adobe Illustrator 23.0.1, SVG Export Plug-In . SVG Version: 6.00 Build 0)  -->
<svg version="1.1" id="Layer_1" xmlns="http://www.w3.org/2000/svg" xmlns:xlink="http://www.w3.org/1999/xlink" x="0px" y="0px"
	 viewBox="0 0 1000 1000" style="enable-background:new 0 0 1000 1000;" xml:space="preserve">
<style type="text/css">
	.st0{fill:url(#SVGID_1_);}
	.st1{fill:url(#SVGID_2_);}
	.st2{fill:url(#SVGID_3_);}
	.st3{fill:url(#SVGID_4_);}
	.st4{fill:#010101;}
	.st5{fill:#FFFFFF;}
</style>
<g transform="matrix(1.114332 0 0 1.114332 -51.712607 -2.053351)">
	
		<linearGradient id="SVGID_1_" gradientUnits="userSpaceOnUse" x1="316.6369" y1="154.9719" x2="854.7794" y2="479.7295" gradientTransform="matrix(1.1143 0 0 -1.1143 -51.8152 1003.9507)">
		<stop  offset="0" style="stop-color:#FAEE3C"/>
		<stop  offset="1" style="stop-color:#F37C3E"/>
	</linearGradient>
	<path class="st0" d="M897,496.9c6.2-5.7,9.9-13.6,10.3-22c0.9-17.6-12.6-32.6-30.2-33.6c-8.2-0.4-16.3,2.3-22.7,7.5l-575.2,315
		c-13.5,5.6-24.8,15.5-32.2,28.1c-19.6,32.7-9,75.2,23.8,94.8c0.3,0.2,0.7,0.4,1,0.6c22.8,13.3,51.1,12.8,73.4-1.4
		c1.4-1.4,3.4-2.1,5-3.4l534.9-376.3c4.2-2.9,8.1-6.1,11.7-9.6L897,496.9z"/>
	
		<linearGradient id="SVGID_2_" gradientUnits="userSpaceOnUse" x1="418.7506" y1="854.9425" x2="909.9061" y2="424.954" gradientTransform="matrix(1.1143 0 0 -1.1143 -51.8152 1003.9507)">
		<stop  offset="0" style="stop-color:#EF5B6B"/>
		<stop  offset="0.57" style="stop-color:#F36F4F"/>
		<stop  offset="1" style="stop-color:#F37C3E"/>
	</linearGradient>
	<path class="st1" d="M898.1,450.9L460.4,21.2c-19.7-21.6-53.2-23-74.8-3.3c-10.9,10-17.2,24.1-17.2,39c-0.1,13.5,5,26.6,14.2,36.5
		c2.6,2.5,5.4,4.7,8.3,6.8l462.6,396.1c5.7,5.1,12.9,8.3,20.6,8.9c17.6,0.9,32.6-12.6,33.6-30.2C907.8,466,904.3,457.4,898.1,450.9
		L898.1,450.9z"/>
	
		<linearGradient id="SVGID_3_" gradientUnits="userSpaceOnUse" x1="446.6966" y1="505.1086" x2="155.6167" y2="686.8995" gradientTransform="matrix(1.1143 0 0 -1.1143 -51.8152 1003.9507)">
		<stop  offset="0" style="stop-color:#7D5AA4"/>
		<stop  offset="0.39" style="stop-color:#B04D93"/>
		<stop  offset="0.77" style="stop-color:#DC4284"/>
		<stop  offset="0.96" style="stop-color:#EE3E7D"/>
	</linearGradient>
	<path class="st2" d="M474.6,412.5c-0.7,0-270.4-212.8-276-216.2l-12.4-6.2c-39.7-14.9-84,5.2-98.9,44.9
		c-12.9,34.4,0.3,73.1,31.6,92.4c4.3,2.6,8.9,4.7,13.7,6.2c2.7,1.4,311.6,129,311.6,129c14.8,6.7,32.3,0.1,39-14.7
		C489,435.4,485.3,420.7,474.6,412.5L474.6,412.5z"/>
	
		<linearGradient id="SVGID_4_" gradientUnits="userSpaceOnUse" x1="441.9935" y1="874.5254" x2="157.817" y2="639.8081" gradientTransform="matrix(1.1143 0 0 -1.1143 -51.8152 1003.9507)">
		<stop  offset="0" style="stop-color:#EF5B6B"/>
		<stop  offset="0.36" style="stop-color:#EE5173"/>
		<stop  offset="1" style="stop-color:#EE3E7D"/>
	</linearGradient>
	<path class="st3" d="M421,4.1c-11.3,0.2-22.3,3.8-31.5,10.3L116.3,198.3c-0.7,0.7-1.4,0.7-1.4,1.4h-0.7
		c-34.3,24.7-42,72.5-17.3,106.8c9,12.5,21.5,21.9,35.9,27.2c23.9,9.1,50.8,5.5,71.4-9.6c4.6-3.1,8.7-6.8,12.4-11L454,98.9
		c13-10,20.6-25.5,20.6-41.9C474.3,27.6,450.4,4,421,4.1L421,4.1z"/>
	<g transform="matrix(.319087 0 0 .319087 11.305442 -9.323765)">
		<path class="st4" d="M967.9,846.5H2065v1097.1H967.9V846.5z"/>
		<g>
			<path class="st5" d="M1062.5,1737.1h410.9v68.9h-410.9V1737.1z M1058.3,1134.7l32.3-30.2c6.1,9.8,16.5,16.2,28,17.3
				c13,0,19.4-8.6,19.4-25.8V982h49.4v114c3.8,33-19.8,62.9-52.8,66.7c-4.6,0.5-9.3,0.5-13.9,0
				C1096.3,1166,1072.1,1155.1,1058.3,1134.7z M1198.2,984.2h144.1v40.9h-94.8v27.5h86v38.9h-86v28h96.9v43.1h-144.1L1198.2,984.2z
				 M1407.3,1027.1h-54.4v-42.9h157v43.1h-53.8v135.6h-48.8V1027.1z M1062.5,1203.4h92.5c17.8-0.5,35.2,5,49.4,15.5
				c7.4,8.3,11.2,19.1,10.7,30.2c0.5,18.3-10.8,34.8-28,40.9c20.6,3.7,35.3,22.1,34.4,43.1c0,30.2-25.8,49.4-66.9,49.4h-92.5
				L1062.5,1203.4z M1165.7,1259.4c0-10.9-8.6-15.5-21.5-15.5h-32.3v32.3h30.2c15.5-2.2,23.6-6.5,23.6-17.1V1259.4z M1148.6,1311
				h-38.9v32.3h38.9c15.5,0,23.6-6.5,23.6-17.1c0.2-10.9-8.4-15.1-23.3-15.1L1148.6,1311z M1230.1,1203.4h84
				c21.3-2,42.4,5,58.2,19.4c10.8,10.8,16.4,25.7,15.5,40.9c0.5,24.4-14,46.6-36.5,56l43.1,62.2h-56l-36.5-53.8H1280v53.8h-49.4
				L1230.1,1203.4z M1311.9,1289.4c17.1,0,25.8-8.6,25.8-21.5c0-15.5-10.9-21.5-25.8-21.5h-32.2v43.1L1311.9,1289.4z"/>
			<path class="st5" d="M1445.4,1203.4h46.6l75.3,180.7h-53.8l-12.9-32.3h-68.9l-12.9,32.3h-51.6L1445.4,1203.4z M1488.5,1311
				l-19-49.4l-19.4,49.4H1488.5z M1574.5,1203.4h49.4v178.5h-49.4V1203.4z M1636.7,1203.4h45.1l73.1,94.8v-94.8h49.4v178.5h-43.1
				l-75.1-96.4v98.9h-49.4L1636.7,1203.4z M1808.8,1356.3l28-32.3c16,14.2,36.8,21.9,58.2,21.5c12.9,0,21.5-4.4,21.5-12.9
				c0-8.6-6.5-10.9-30.2-17.1c-38.9-8.6-66.9-19.4-66.9-56c0-32.3,25.8-58.2,68.9-58.2c26.4-0.8,52.2,7.6,73.1,23.6l-25.3,34.5
				c-14.6-10.1-31.7-16.1-49.4-17.3c-12.9,0-17.1,4.4-17.1,10.9c0,8.6,6.5,10.9,30.2,17.1c40.9,8.6,66.9,21.5,66.9,56
				c0,36.5-28,58.2-73.1,58.2c-30.7,2.4-61-7.8-84.1-28.1L1808.8,1356.3z"/>
		</g>
	</g>
</g>
</svg>
