<?xml version="1.0" encoding="utf-8"?>
<svg xmlns="http://www.w3.org/2000/svg" viewBox="0 0 500 500" xmlns:bx="https://boxy-svg.com" width="500px" height="500px"><defs><bx:export><bx:file format="svg"/></bx:export></defs><rect style="fill-rule: nonzero; paint-order: fill; stroke-miterlimit: 17.85; fill: rgb(199, 236, 236);" y="250" width="500" height="75" rx="37.5" ry="37.5"/><rect style="fill-rule: nonzero; paint-order: fill; stroke-miterlimit: 17.85; transform-box: fill-box; transform-origin: 50% 50%; fill: rgb(199, 236, 236);" transform="matrix(0, 1, -1, 0, 331.114267, 13.952995)" x="16.386" y="368.547" width="160" height="75"/><rect style="fill-rule: nonzero; paint-order: fill; stroke-miterlimit: 17.85; transform-origin: 96.386px 406.047px; fill: rgb(199, 236, 236);" transform="matrix(0, 1, -1, 0, 241.113982, 13.952974)" x="16.386" y="368.547" width="160" height="75"/><rect style="fill-rule: nonzero; paint-order: fill; stroke-miterlimit: 17.85; transform-origin: 96.386px 406.047px; fill: rgb(199, 236, 236);" transform="matrix(0, 1, -1, 0, 151.11398, 13.952974)" x="16.386" y="368.547" width="160" height="75"/><rect style="fill-rule: nonzero; paint-order: fill; stroke-miterlimit: 17.85; transform-origin: 96.386px 406.047px; fill: rgb(199, 236, 236);" transform="matrix(0, 1, -1, 0, 61.113992, 13.95299)" x="16.386" y="368.547" width="160" height="75"/><rect style="fill-rule: nonzero; paint-order: fill; stroke-miterlimit: 17.85; transform-origin: 96.386px 406.047px; fill: rgb(199, 236, 236);" transform="matrix(0, 1, -1, 0, -28.886026, 13.952974)" x="16.386" y="368.547" width="160" height="75"/><path d="M 354.977 -80.024 C 239.005 -80.024 145.024 14.003 145.024 129.976 C 145.024 245.949 239.005 339.976 354.977 339.976 L 354.977 261.225 C 282.492 261.225 223.756 202.479 223.756 129.976 C 223.756 57.5 282.492 -1.274 354.977 -1.274 L 354.977 -80.024 Z" style="transform-box: fill-box; transform-origin: 50% 50%; fill: rgb(90, 106, 117);" transform="matrix(0, 1, -1, 0, 0.000028, -0.00003)"/></svg>