<?xml version="1.0" encoding="utf-8"?>
<svg xmlns="http://www.w3.org/2000/svg" viewBox="0 0 500 500" xmlns:bx="https://boxy-svg.com" width="500px" height="500px"><defs><bx:export><bx:file format="png"/><bx:file format="svg"/></bx:export></defs><path d="M 249.386 5.035 L 316.77 117.341 L 182.003 117.341 L 249.386 5.035 Z" bx:shape="triangle 182.003 5.035 134.767 112.306 0.5 0 1@5264343f" style="fill: rgb(255, 109, 228); transform-origin: 249.384px 61.191px;"/><path d="M -249.396 -229.64 L -182.013 -117.334 L -316.78 -117.334 L -249.396 -229.64 Z" bx:shape="triangle -316.78 -229.64 134.767 112.306 0.5 0 1@64131312" style="fill: rgb(255, 109, 228); transform-origin: -249.39px -173.484px;" transform="matrix(-1, 0, 0, -1, 498.78009, 346.967194)"/><path d="M 249.443 271.62 L 316.826 383.926 L 182.059 383.926 L 249.443 271.62 Z" bx:shape="triangle 182.059 271.62 134.767 112.306 0.5 0 1@280b6a7c" style="fill: rgb(255, 109, 228); transform-origin: 249.44px 327.776px;"/><path d="M -249.396 -496.23 L -182.013 -383.924 L -316.78 -383.924 L -249.396 -496.23 Z" bx:shape="triangle -316.78 -496.23 134.767 112.306 0.5 0 1@13fdd467" style="fill: rgb(255, 109, 228); transform-origin: -249.395px -440.062px;" transform="matrix(-1, 0, 0, -1, 498.789734, 880.124512)"/><path d="M 273.944 8.481 L 341.327 120.787 L 206.56 120.787 L 273.944 8.481 Z" bx:shape="triangle 206.56 8.481 134.767 112.306 0.5 0 1@c1947e85" style="fill: rgb(255, 109, 228); transform-origin: 273.941px 64.637px;" transform="matrix(0.484811, 0.874619, -0.874619, 0.484811, 141.148272, 94.126381)"/><path d="M -273.956 -233.09 L -206.573 -120.784 L -341.34 -120.784 L -273.956 -233.09 Z" bx:shape="triangle -341.34 -233.09 134.767 112.306 0.5 0 1@3a20d2c4" style="fill: rgb(255, 109, 228); transform-origin: -273.947px -176.93px;" transform="matrix(-0.484811, -0.874619, 0.874619, -0.484811, 590.826594, 390.139199)"/><path d="M 274 275.065 L 341.383 387.371 L 206.616 387.371 L 274 275.065 Z" bx:shape="triangle 206.616 275.065 134.767 112.306 0.5 0 1@325207e1" style="fill: rgb(255, 109, 228); transform-origin: 273.997px 331.222px;" transform="matrix(0.484811, 0.874619, -0.874619, 0.484811, -92.040625, -43.166729)"/><path d="M -273.956 -499.68 L -206.573 -387.374 L -341.34 -387.374 L -273.956 -499.68 Z" bx:shape="triangle -341.34 -499.68 134.767 112.306 0.5 0 1@39486653" style="fill: rgb(255, 109, 228); transform-origin: -273.952px -443.506px;" transform="matrix(-0.484811, -0.874619, 0.874619, -0.484811, 357.679409, 785.96048)"/><path d="M 273.945 8.481 L 341.328 120.787 L 206.561 120.787 L 273.945 8.481 Z" bx:shape="triangle 206.561 8.481 134.767 112.306 0.5 0 1@9a7ac586" style="fill: rgb(255, 109, 228); transform-origin: 273.942px 64.637px;" transform="matrix(-0.515037, 0.857168, -0.857168, -0.515037, 137.847034, 283.539855)"/><path d="M -273.956 -233.09 L -206.573 -120.784 L -341.34 -120.784 L -273.956 -233.09 Z" bx:shape="triangle -341.34 -233.09 134.767 112.306 0.5 0 1@3a20d2c4" style="fill: rgb(255, 109, 228); transform-origin: -273.948px -176.93px;" transform="matrix(0.515037, -0.857168, 0.857168, 0.515037, 589.480423, 467.277787)"/><path d="M 274 275.066 L 341.383 387.372 L 206.616 387.372 L 274 275.066 Z" bx:shape="triangle 206.616 275.066 134.767 112.306 0.5 0 1@5c19b7a0" style="fill: rgb(255, 109, 228); transform-origin: 273.997px 331.222px;" transform="matrix(-0.515037, 0.857168, -0.857168, -0.515037, -90.744766, -120.299097)"/><path d="M -273.956 -499.68 L -206.573 -387.374 L -341.34 -387.374 L -273.956 -499.68 Z" bx:shape="triangle -341.34 -499.68 134.767 112.306 0.5 0 1@39486653" style="fill: rgb(255, 109, 228); transform-origin: -273.954px -443.508px;" transform="matrix(0.515037, -0.857168, 0.857168, 0.515037, 360.980698, 596.561569)"/></svg>